HIERARCHY
ROOT joint_Root
{
	OFFSET 0.0 0.0 0.0
	CHANNELS 6 Xposition Yposition Zposition Zrotation Xrotation Yrotation 
	JOINT Hips
	{
		OFFSET -0.726466 93.3139 -2.00062
		CHANNELS 6 Xposition Yposition Zposition Zrotation Xrotation Yrotation 
		JOINT Spine
		{
			OFFSET 15.7357 0.0 0.0
			CHANNELS 6 Xposition Yposition Zposition Zrotation Xrotation Yrotation 
			JOINT Chest
			{
				OFFSET 8.98455 -0.406207 0.0
				CHANNELS 6 Xposition Yposition Zposition Zrotation Xrotation Yrotation 
				JOINT Neck
				{
					OFFSET 16.3773 0.0 0.0
					CHANNELS 6 Xposition Yposition Zposition Zrotation Xrotation Yrotation 
					JOINT Head
					{
						OFFSET 6.45672 0.0 0.0
						CHANNELS 6 Xposition Yposition Zposition Zrotation Xrotation Yrotation 
						End Site
						{
							OFFSET 0.0 0.0 0.0
						}
					}
				}
				JOINT Shoulder_L
				{
					OFFSET 12.9942 -0.242716 4.98039
					CHANNELS 6 Xposition Yposition Zposition Zrotation Xrotation Yrotation 
					JOINT UpperArm_L
					{
						OFFSET 5.34809 0.0 0.0
						CHANNELS 6 Xposition Yposition Zposition Zrotation Xrotation Yrotation 
						JOINT LowerArm_L
						{
							OFFSET 24.3286 1.87007e-05 0.0
							CHANNELS 6 Xposition Yposition Zposition Zrotation Xrotation Yrotation 
							JOINT Hand_L
							{
								OFFSET 22.2916 0.0 0.0
								CHANNELS 6 Xposition Yposition Zposition Zrotation Xrotation Yrotation 
								End Site
								{
									OFFSET 0.0 0.0 0.0
								}
							}
						}
					}
				}
				JOINT Shoulder_R
				{
					OFFSET 12.9945 -0.242716 -4.98039
					CHANNELS 6 Xposition Yposition Zposition Zrotation Xrotation Yrotation 
					JOINT UpperArm_R
					{
						OFFSET -5.34813 0.0 0.0
						CHANNELS 6 Xposition Yposition Zposition Zrotation Xrotation Yrotation 
						JOINT LowerArm_R
						{
							OFFSET -24.3289 0.000322201 0.0
							CHANNELS 6 Xposition Yposition Zposition Zrotation Xrotation Yrotation 
							JOINT Hand_R
							{
								OFFSET -22.2915 -0.000108084 0.0
								CHANNELS 6 Xposition Yposition Zposition Zrotation Xrotation Yrotation 
								End Site
								{
									OFFSET 0.0 0.0 0.0
								}
							}
						}
					}
				}
			}
		}
		JOINT UpperLeg_L
		{
			OFFSET -2.19248 -6.46944 0.0
			CHANNELS 6 Xposition Yposition Zposition Zrotation Xrotation Yrotation 
			JOINT LowerLeg_L
			{
				OFFSET 39.0811 0.0 -1.23785e-05
				CHANNELS 6 Xposition Yposition Zposition Zrotation Xrotation Yrotation 
				JOINT Foot_L
				{
					OFFSET 40.9854 0.0 -1.26872e-05
					CHANNELS 6 Xposition Yposition Zposition Zrotation Xrotation Yrotation 
					JOINT Toes_L
					{
						OFFSET 11.7543 0.0 0.0
						CHANNELS 6 Xposition Yposition Zposition Zrotation Xrotation Yrotation 
						End Site
						{
							OFFSET 0.0 0.0 0.0
						}
					}
				}
			}
		}
		JOINT UpperLeg_R
		{
			OFFSET -2.19251 6.46944 0.0
			CHANNELS 6 Xposition Yposition Zposition Zrotation Xrotation Yrotation 
			JOINT LowerLeg_R
			{
				OFFSET -39.0811 -0.00228153 -0.0401928
				CHANNELS 6 Xposition Yposition Zposition Zrotation Xrotation Yrotation 
				JOINT Foot_R
				{
					OFFSET -40.9854 0.0 0.0
					CHANNELS 6 Xposition Yposition Zposition Zrotation Xrotation Yrotation 
					JOINT Toes_R
					{
						OFFSET -11.7543 0.0 0.0
						CHANNELS 6 Xposition Yposition Zposition Zrotation Xrotation Yrotation 
						End Site
						{
							OFFSET 0.0 0.0 0.0
						}
					}
				}
			}
		}
	}
}
MOTION
Frames:	4
Frame Time:	0.0333333
0.000000 0.000000 0.000000 0.000000 0.000000 -0.000000 -1.263550 92.388300 -2.089110 87.968600 -1.209340 4.075740 15.735700 0.000005 -0.000001 84.109500 85.319400 -83.761200 8.984550 -0.406207 -0.000000 1.549110 -0.979097 0.709226 16.377300 -0.000001 -0.000001 2.228190 -2.348890 0.898597 6.456720 -0.000001 -0.000000 3.922240 -2.169820 -2.578290 12.994200 -0.242716 4.980390 -90.086000 0.274624 -72.616400 5.348090 -0.000007 -0.000001 -68.424300 38.900800 -13.738100 24.328600 0.000019 0.000005 0.860957 2.176890 -21.584000 22.291600 -0.000001 0.000005 4.338430 5.462770 -5.102420 12.994500 -0.242716 -4.980390 88.264100 5.917920 -73.619500 -5.348130 -0.000001 -0.000004 -63.459200 38.168000 -17.786200 -24.328900 0.000322 -0.000009 1.736680 5.686160 -17.022800 -22.291500 -0.000108 -0.000004 5.536020 5.374000 -2.112050 -2.192480 -6.469440 -0.000000 -175.148000 -6.867880 -3.321920 39.081100 -0.000007 -0.000012 -0.100946 0.239734 22.834700 40.985400 -0.000006 -0.000013 -0.714993 2.696670 -65.548800 11.754300 -0.000000 0.000003 -0.000024 -0.000300 -16.589300 -2.192510 6.469440 -0.000001 -179.737000 15.431800 179.879000 -39.081100 -0.002282 -0.040193 -0.013007 0.047013 19.155000 -40.985400 0.000008 0.000006 4.577390 6.807380 -65.582700 -11.754300 -0.000006 -0.000006 -0.005785 -0.068871 -19.375900
0.000000 0.000000 0.000000 0.000000 0.000000 -0.000000 -1.227360 92.398200 -2.130580 87.986100 -1.158550 4.015320 15.735700 0.000005 -0.000001 83.462500 85.333900 -83.143000 8.984550 -0.406207 -0.000000 1.508910 -1.079390 0.652670 16.377300 -0.000001 -0.000001 2.136980 -2.326210 0.868655 6.456720 -0.000001 -0.000000 3.931140 -2.095900 -2.598140 12.994200 -0.242716 4.980390 -90.049000 0.155967 -72.573200 5.348090 -0.000007 -0.000001 -68.750200 38.730600 -13.524700 24.328600 0.000019 0.000005 0.832996 2.103240 -21.610900 22.291600 -0.000001 0.000005 4.392860 5.460830 -5.031110 12.994500 -0.242716 -4.980390 88.160000 6.156240 -73.324000 -5.348130 -0.000001 -0.000004 -61.754100 35.842200 -18.707700 -24.328900 0.000322 -0.000009 2.439610 7.451930 -18.190300 -22.291500 -0.000108 -0.000004 1.888970 5.369310 -1.963600 -2.192480 -6.469440 -0.000000 -175.197000 -6.847070 -3.394190 39.081100 -0.000007 -0.000012 -0.102556 0.244198 22.781000 40.985400 -0.000006 -0.000013 -0.689243 2.714560 -65.490300 11.754300 -0.000000 0.000003 -0.000024 -0.000301 -16.589300 -2.192510 6.469440 -0.000001 -179.743000 15.388800 179.799000 -39.081100 -0.002282 -0.040193 -0.011268 0.042043 19.139100 -40.985400 0.000008 0.000006 4.648150 6.713370 -65.558400 -11.754300 -0.000006 -0.000006 -0.005979 -0.070643 -19.448100
0.000000 0.000000 0.000000 0.000000 0.000000 -0.000000 -1.155020 92.402700 -2.159290 88.010400 -1.163560 4.011850 15.735700 0.000005 -0.000001 82.627000 85.330200 -82.336900 8.984550 -0.406207 -0.000000 1.499770 -1.213770 0.595618 16.377300 -0.000001 -0.000001 2.086210 -2.320110 0.955707 6.456720 -0.000001 -0.000000 3.877730 -1.908420 -2.768740 12.994200 -0.242716 4.980390 -90.010600 0.033494 -72.523000 5.348090 -0.000007 -0.000001 -69.160400 38.409900 -13.244100 24.328600 0.000019 0.000005 0.878307 2.212140 -21.660500 22.291600 -0.000001 0.000005 4.424870 5.460110 -5.005010 12.994500 -0.242716 -4.980390 88.098400 6.223260 -72.971100 -5.348130 -0.000001 -0.000004 -59.388600 31.691100 -20.234400 -24.328900 0.000322 -0.000009 2.913290 8.163770 -19.722400 -22.291500 -0.000108 -0.000004 -1.166910 5.353280 -1.471110 -2.192480 -6.469440 -0.000000 -175.276000 -6.922170 -3.411440 39.081100 -0.000007 -0.000012 -0.098835 0.235528 22.764500 40.985400 -0.000006 -0.000013 -0.616242 2.770300 -65.465600 11.754300 -0.000000 0.000003 -0.000025 -0.000311 -16.589700 -2.192510 6.469440 -0.000001 -179.820000 15.355400 179.763000 -39.081100 -0.002282 -0.040193 -0.014097 0.050195 19.139300 -40.985400 0.000008 0.000006 4.475990 6.720460 -65.496100 -11.754300 -0.000006 -0.000006 -0.005837 -0.069345 -19.395200
0.000000 0.000000 0.000000 0.000000 0.000000 -0.000000 -1.057340 92.407700 -2.207120 88.005100 -1.129260 3.975730 15.735700 0.000005 -0.000001 81.581900 85.356600 -81.318800 8.984550 -0.406207 -0.000000 1.424280 -1.373400 0.542843 16.377300 -0.000001 -0.000001 2.132070 -2.316710 1.078200 6.456720 -0.000001 -0.000000 3.840240 -1.729500 -2.875610 12.994200 -0.242716 4.980390 -89.981200 -0.059620 -72.520300 5.348090 -0.000007 -0.000001 -69.483500 38.207800 -12.977900 24.328600 0.000019 0.000005 0.852098 2.141320 -21.704100 22.291600 -0.000001 0.000005 4.436570 5.460050 -5.002500 12.994500 -0.242716 -4.980390 88.084300 6.075860 -72.463400 -5.348130 -0.000001 -0.000004 -56.759000 25.640100 -22.185000 -24.328900 0.000322 -0.000009 3.121870 7.837760 -21.806800 -22.291500 -0.000108 -0.000004 -2.164650 5.334430 -0.914828 -2.192480 -6.469440 -0.000000 -175.339000 -6.998630 -3.496580 39.081100 -0.000007 -0.000012 -0.097817 0.232907 22.781700 40.985400 -0.000006 -0.000013 -0.529064 2.840750 -65.442400 11.754300 -0.000000 0.000003 -0.000025 -0.000304 -16.589400 -2.192510 6.469440 -0.000001 -179.865000 15.329700 179.705000 -39.081100 -0.002282 -0.040193 -0.015322 0.053774 19.122400 -40.985400 0.000008 0.000006 4.368450 6.700380 -65.436000 -11.754300 -0.000006 -0.000006 -0.006029 -0.071099 -19.466700
